<svg xmlns="http://www.w3.org/2000/svg" viewBox="0 0 420 360" role="img" aria-label="Cute fire dragon boss">
  <defs>
    <linearGradient id="body" x1="0" y1="0" x2="1" y2="1">
      <stop offset="0" stop-color="#ff8a5b"/>
      <stop offset="1" stop-color="#e9415e"/>
    </linearGradient>
    <linearGradient id="belly" x1="0" y1="0" x2="0" y2="1">
      <stop offset="0" stop-color="#ffe49b"/>
      <stop offset="1" stop-color="#ffc85f"/>
    </linearGradient>
  </defs>
  <ellipse cx="212" cy="327" rx="126" ry="22" fill="#8d5d52" opacity=".18"/>
  <path d="M104 198C37 154 31 90 61 69c30-21 68 23 80 72" fill="#d83c61"/>
  <path d="M316 198c67-44 73-108 43-129-30-21-68 23-80 72" fill="#d83c61"/>
  <path d="M92 177c-31-29-38-66-24-81 18-18 48 24 58 57" fill="#ffb66e" opacity=".9"/>
  <path d="M328 177c31-29 38-66 24-81-18-18-48 24-58 57" fill="#ffb66e" opacity=".9"/>
  <path d="M126 100l-26-42 48 19M294 100l26-42-48 19" fill="#ffe49b"/>
  <path d="M210 49c64 0 105 45 105 112v72c0 69-45 105-105 105S105 302 105 233v-72c0-67 41-112 105-112z" fill="url(#body)"/>
  <ellipse cx="210" cy="243" rx="66" ry="83" fill="url(#belly)"/>
  <path d="M176 151c0-19-14-32-33-32-18 0-31 12-31 31 0 20 14 34 33 34 18 0 31-13 31-33zm132 0c0-19-13-32-31-32-19 0-33 13-33 32s13 33 31 33c19 0 33-14 33-33z" fill="#fff"/>
  <circle cx="146" cy="154" r="11" fill="#302845"/>
  <circle cx="274" cy="154" r="11" fill="#302845"/>
  <circle cx="142" cy="150" r="4" fill="#fff"/>
  <circle cx="270" cy="150" r="4" fill="#fff"/>
  <path d="M177 205c21 17 45 17 66 0" fill="none" stroke="#7c2944" stroke-width="10" stroke-linecap="round"/>
  <path d="M187 208l8 21 13-19m25-2-8 21-13-19" fill="#fff"/>
  <circle cx="166" cy="194" r="8" fill="#c62f52" opacity=".45"/>
  <circle cx="254" cy="194" r="8" fill="#c62f52" opacity=".45"/>
  <path d="M107 237c-37 5-55 27-46 45 9 18 35 12 61-3m191-42c37 5 55 27 46 45-9 18-35 12-61-3" fill="none" stroke="#e9415e" stroke-width="28" stroke-linecap="round"/>
  <path d="M168 327l-36 15 19-34m101 19 36 15-19-34" fill="#d83c61"/>
</svg>
